# xmcd
#
# Track frame offsets:
#	150
#	11123
#	23082
#	37826
#	49958
#	58170
#	76536
#	89864
#
# Disc length: 1334 seconds
#
# Revision: 1
# Processed by: cddbd v1.5.2PL0 Copyright (c) Steve Scherf et al.
# Submitted via: audiograbber 1.83.01
#
DISCID=5d053408
DTITLE=Michael Rault - Crash! Boom! Bang!
DYEAR=2009
DGENRE=garage rock
TTITLE0=Pretty Thing
TTITLE1=Honey Bee
TTITLE2=Can't Hold On Much Longer
TTITLE3=Side Winder
TTITLE4=The Flood
TTITLE5=Who Will the Next Fool Be?
TTITLE6=I Want You For Mine
TTITLE7=Paranoia Paint Set
EXTD=
EXTT0=
EXTT1=
EXTT2=
EXTT3=
EXTT4=
EXTT5=
EXTT6=
EXTT7=
PLAYORDER=
